<?xml version="1.0" encoding="UTF-8"?>
<!DOCTYPE svg PUBLIC "-//W3C//DTD SVG 1.1//EN" "http://www.w3.org/Graphics/SVG/1.1/DTD/svg11.dtd">
<svg version="1.1" xmlns="http://www.w3.org/2000/svg" xmlns:xlink="http://www.w3.org/1999/xlink" x="0" y="0" width="200" height="200" viewBox="0, 0, 200, 200">
  <g id="Layer_1">
    <path d="M100.5,185.5 C53.556,185.5 15.5,147.444 15.5,100.5 C15.5,53.556 53.556,15.5 100.5,15.5 C147.444,15.5 185.5,53.556 185.5,100.5 C185.5,147.444 147.444,185.5 100.5,185.5 z" fill="#FFD2D2"/>
    <path d="M98.675,53.501 C113.614,53.501 127.659,60.518 136.745,72.147 L150.637,64.088 L150.666,110.219 L110.836,87.179 L123.64,79.747 C117.351,72.679 108.302,68.423 98.675,68.423 C80.226,68.423 65.207,83.485 65.207,102 C65.207,120.515 80.226,135.577 98.675,135.577 L98.675,150.499 C72.019,150.499 50.334,128.742 50.334,102 C50.334,75.258 72.019,53.501 98.675,53.501 z" fill="#000000"/>
  </g>
</svg>
